<svg aria-hidden="true" style="position: absolute; width: 0; height: 0; overflow: hidden;" version="1.1" xmlns="http://www.w3.org/2000/svg" xmlns:xlink="http://www.w3.org/1999/xlink">
<defs>
<symbol id="icon-bell" viewBox="0 0 24 24">
<title>bell</title>
<path d="M17 8c0 4.011 0.947 6.52 1.851 8h-13.702c0.904-1.48 1.851-3.989 1.851-8 0-1.381 0.559-2.63 1.464-3.536s2.155-1.464 3.536-1.464 2.63 0.559 3.536 1.464 1.464 2.155 1.464 3.536zM19 8c0-1.933-0.785-3.684-2.050-4.95s-3.017-2.050-4.95-2.050-3.684 0.785-4.95 2.050-2.050 3.017-2.050 4.95c0 6.127-2.393 8.047-2.563 8.174-0.453 0.308-0.573 0.924-0.269 1.381 0.192 0.287 0.506 0.443 0.832 0.445h18c0.552 0 1-0.448 1-1 0-0.339-0.168-0.638-0.429-0.821-0.176-0.13-2.571-2.050-2.571-8.179zM12.865 20.498c-0.139 0.239-0.359 0.399-0.608 0.465s-0.52 0.037-0.759-0.101c-0.162-0.094-0.283-0.222-0.359-0.357-0.274-0.48-0.884-0.647-1.364-0.373s-0.647 0.884-0.373 1.364c0.25 0.439 0.623 0.823 1.093 1.096 0.716 0.416 1.535 0.501 2.276 0.304s1.409-0.678 1.824-1.394c0.277-0.478 0.114-1.090-0.363-1.367s-1.090-0.114-1.367 0.363z"></path>
</symbol>
<symbol id="icon-warning" viewBox="0 0 20 20">
<title>warning</title>
<path d="M19.511 17.98l-8.907-16.632c-0.124-0.215-0.354-0.348-0.604-0.348s-0.481 0.133-0.604 0.348l-8.906 16.632c-0.121 0.211-0.119 0.471 0.005 0.68 0.125 0.211 0.352 0.34 0.598 0.34h17.814c0.245 0 0.474-0.129 0.598-0.34 0.124-0.209 0.126-0.469 0.006-0.68zM11 17h-2v-2h2v2zM11 13.5h-2v-6.5h2v6.5z"></path>
</symbol>
<symbol id="icon-chevron-left" viewBox="0 0 20 20">
<title>chevron-left</title>
<path d="M12.452 4.516c0.446 0.436 0.481 1.043 0 1.576l-3.747 3.908 3.747 3.908c0.481 0.533 0.446 1.141 0 1.574-0.445 0.436-1.197 0.408-1.615 0-0.418-0.406-4.502-4.695-4.502-4.695-0.223-0.217-0.335-0.502-0.335-0.787s0.112-0.57 0.335-0.789c0 0 4.084-4.287 4.502-4.695s1.17-0.436 1.615 0z"></path>
</symbol>
<symbol id="icon-chevron-right" viewBox="0 0 20 20">
<title>chevron-right</title>
<path d="M9.163 4.516c0.418 0.408 4.502 4.695 4.502 4.695 0.223 0.219 0.335 0.504 0.335 0.789s-0.112 0.57-0.335 0.787c0 0-4.084 4.289-4.502 4.695-0.418 0.408-1.17 0.436-1.615 0-0.446-0.434-0.481-1.041 0-1.574l3.747-3.908-3.747-3.908c-0.481-0.533-0.446-1.141 0-1.576s1.197-0.409 1.615 0z"></path>
</symbol>
<symbol id="icon-open-book" viewBox="0 0 20 20">
<title>open-book</title>
<path d="M10.595 5.196l0.446 1.371c0.369-0.316 0.835-0.599 1.441-0.795 0.59-0.192 1.111-0.3 1.582-0.362l-0.43-1.323c-0.476 0.069-1.001 0.18-1.58 0.368s-1.055 0.45-1.459 0.741zM11.522 8.051l0.446 1.371c0.369-0.316 0.835-0.599 1.441-0.795 0.59-0.192 1.111-0.3 1.582-0.362l-0.43-1.323c-0.476 0.069-1.001 0.18-1.58 0.368-0.578 0.187-1.054 0.449-1.459 0.741zM12.45 10.905l0.446 1.371c0.369-0.316 0.835-0.599 1.441-0.795 0.59-0.192 1.111-0.3 1.582-0.362l-0.43-1.323c-0.476 0.069-1.001 0.18-1.58 0.368-0.579 0.187-1.055 0.45-1.459 0.741zM5.388 13.077l0.43 1.323c0.417-0.226 0.902-0.445 1.492-0.636 0.606-0.197 1.149-0.242 1.633-0.203l-0.446-1.371c-0.499 0.002-1.038 0.070-1.615 0.257-0.579 0.188-1.069 0.406-1.494 0.63zM3.533 7.368l0.43 1.323c0.417-0.226 0.902-0.444 1.492-0.636 0.606-0.197 1.149-0.242 1.633-0.203l-0.445-1.372c-0.499 0.003-1.038 0.070-1.616 0.258-0.579 0.188-1.069 0.406-1.494 0.63zM4.46 10.223l0.43 1.323c0.417-0.226 0.902-0.445 1.492-0.636 0.606-0.197 1.149-0.242 1.633-0.203l-0.445-1.372c-0.499 0.002-1.038 0.070-1.615 0.257-0.579 0.188-1.070 0.407-1.495 0.631zM11.064 1.41c-1.723 0.56-2.623 1.752-3.053 2.559-0.822-0.4-2.25-0.835-3.973-0.275-2.523 0.82-3.969 2.627-3.969 2.627l4.095 12.587c0.126 0.387 0.646 0.477 0.878 0.143 0.499-0.719 1.46-1.658 3.257-2.242 1.718-0.558 2.969 0.054 3.655 0.578 0.272 0.208 0.662 0.060 0.762-0.268 0.252-0.827 0.907-2.040 2.61-2.593 1.799-0.585 3.129-0.389 3.956-0.1 0.385 0.134 0.75-0.242 0.625-0.629l-4.088-12.594c0 0-2.232-0.612-4.755 0.207zM10.951 15.256c-0.819-0.244-1.901-0.358-3.141 0.044-1.251 0.406-2.127 0.949-2.699 1.404l-3.245-9.982c0.358-0.358 1.187-1.042 2.662-1.521 1.389-0.451 2.528-0.065 3.279 0.378l3.144 9.677zM17.845 12.567c-0.731-0.032-1.759 0.044-3.010 0.451-1.24 0.403-2.048 1.132-2.567 1.81l-3.144-9.677c0.346-0.8 1.040-1.782 2.43-2.233 1.474-0.479 2.547-0.413 3.047-0.334l3.244 9.983z"></path>
</symbol>
<symbol id="icon-resize-100" viewBox="0 0 20 20">
<title>resize-100</title>
<path d="M4.1 14.1l-3.1 2.9 2 2 2.9-3.1 2.1 2.1v-6h-6l2.1 2.1zM19 3l-2-2-2.9 3.1-2.1-2.1v6h6l-2.1-2.1 3.1-2.9z"></path>
</symbol>
<symbol id="icon-resize-full-screen" viewBox="0 0 20 20">
<title>resize-full-screen</title>
<path d="M6.987 10.987l-2.931 3.031-2.056-2.429v6.411h6.387l-2.43-2.081 3.030-2.932-2-2zM11.613 2l2.43 2.081-3.030 2.932 2 2 2.931-3.031 2.056 2.429v-6.411h-6.387z"></path>
</symbol>
<symbol id="icon-attachment" viewBox="0 0 20 20">
<title>attachment</title>
<path d="M5.602 19.8c-1.293 0-2.504-0.555-3.378-1.44-1.695-1.716-2.167-4.711 0.209-7.116 1.391-1.408 6.966-7.053 9.748-9.87 0.988-1 2.245-1.387 3.448-1.060 1.183 0.32 2.151 1.301 2.468 2.498 0.322 1.22-0.059 2.493-1.046 3.493l-9.323 9.44c-0.532 0.539-1.134 0.858-1.738 0.922-0.599 0.064-1.17-0.13-1.57-0.535-0.724-0.736-0.828-2.117 0.378-3.337l6.548-6.63c0.269-0.272 0.705-0.272 0.974 0s0.269 0.714 0 0.986l-6.549 6.631c-0.566 0.572-0.618 1.119-0.377 1.364 0.106 0.106 0.266 0.155 0.451 0.134 0.283-0.029 0.606-0.216 0.909-0.521l9.323-9.439c0.64-0.648 0.885-1.41 0.69-2.145-0.192-0.725-0.778-1.318-1.493-1.513-0.726-0.197-1.48 0.052-2.12 0.7-2.782 2.818-8.356 8.462-9.748 9.87-1.816 1.839-1.381 3.956-0.209 5.143 1.173 1.187 3.262 1.629 5.079-0.212l9.748-9.87c0.269-0.272 0.705-0.272 0.974 0s0.269 0.714 0 0.987l-9.748 9.87c-1.149 1.162-2.436 1.65-3.648 1.65z"></path>
</symbol>
<symbol id="icon-book" viewBox="0 0 20 20">
<title>book</title>
<path d="M17 5.95v10.351c0 0.522-0.452 0.771-1 1.16-0.44 0.313-1-0.075-1-0.587 0 0 0-9.905 0-10.114 0-0.211-0.074-0.412-0.314-0.535s-7.738-4.065-7.738-4.065c-0.121-0.045-0.649-0.378-1.353-0.016-0.669 0.344-1.033 0.718-1.126 0.894l8.18 4.482c0.217 0.114 0.351 0.29 0.351 0.516v10.802c0 0.23-0.142 0.476-0.369 0.585-0.104 0.052-0.219 0.077-0.333 0.077-0.135 0-0.271-0.033-0.386-0.104-0.215-0.131-7.774-4.766-8.273-5.067-0.24-0.144-0.521-0.439-0.527-0.658l-0.112-10.286c0-0.198-0.023-0.547 0.289-1.032 0.697-1.084 3.129-2.317 4.36-1.678l8.999 4.555c0.217 0.112 0.352 0.336 0.352 0.72z"></path>
</symbol>
<symbol id="icon-chat" viewBox="0 0 20 20">
<title>chat</title>
<path d="M5.8 12.2v-6.2h-3.8c-1.1 0-2 0.9-2 2v6c0 1.1 0.9 2 2 2h1v3l3-3h5c1.1 0 2-0.9 2-2v-1.82c-0.064 0.014-0.132 0.021-0.2 0.021l-7-0.001zM18 1h-9c-1.1 0-2 0.9-2 2v8h7l3 3v-3h1c1.1 0 2-0.899 2-2v-6c0-1.1-0.9-2-2-2z"></path>
</symbol>
<symbol id="icon-circle-with-cross" viewBox="0 0 20 20">
<title>circle-with-cross</title>
<path d="M10 1.6c-4.639 0-8.4 3.761-8.4 8.4s3.761 8.4 8.4 8.4 8.4-3.761 8.4-8.4c0-4.639-3.761-8.4-8.4-8.4zM14.789 13.061l-1.729 1.729-3.060-3.061-3.061 3.060-1.729-1.729 3.062-3.060-3.061-3.061 1.729-1.728 3.060 3.060 3.061-3.061 1.729 1.729-3.062 3.061 3.061 3.061z"></path>
</symbol>
<symbol id="icon-circle-with-minus" viewBox="0 0 20 20">
<title>circle-with-minus</title>
<path d="M10 1.6c-4.639 0-8.4 3.761-8.4 8.4s3.761 8.4 8.4 8.4 8.4-3.761 8.4-8.4c0-4.639-3.761-8.4-8.4-8.4zM15 11h-10v-2h10v2z"></path>
</symbol>
<symbol id="icon-circle-with-plus" viewBox="0 0 20 20">
<title>circle-with-plus</title>
<path d="M10 1.6c-4.639 0-8.4 3.761-8.4 8.4s3.761 8.4 8.4 8.4 8.4-3.761 8.4-8.4c0-4.639-3.761-8.4-8.4-8.4zM15 11h-4v4h-2v-4h-4v-2h4v-4h2v4h4v2z"></path>
</symbol>
<symbol id="icon-cog" viewBox="0 0 20 20">
<title>cog</title>
<path d="M16.783 10c0-1.049 0.646-1.875 1.617-2.443-0.176-0.584-0.407-1.145-0.692-1.672-1.089 0.285-1.97-0.141-2.711-0.883-0.741-0.74-0.968-1.621-0.683-2.711-0.527-0.285-1.088-0.518-1.672-0.691-0.568 0.97-1.595 1.615-2.642 1.615-1.048 0-2.074-0.645-2.643-1.615-0.585 0.173-1.144 0.406-1.671 0.691 0.285 1.090 0.059 1.971-0.684 2.711-0.74 0.742-1.621 1.168-2.711 0.883-0.285 0.527-0.517 1.088-0.691 1.672 0.97 0.568 1.615 1.394 1.615 2.443 0 1.047-0.645 2.074-1.615 2.643 0.175 0.584 0.406 1.144 0.691 1.672 1.090-0.285 1.971-0.059 2.711 0.682s0.969 1.623 0.684 2.711c0.527 0.285 1.087 0.518 1.672 0.693 0.568-0.973 1.595-1.617 2.643-1.617 1.047 0 2.074 0.645 2.643 1.617 0.584-0.176 1.144-0.408 1.672-0.693-0.285-1.088-0.059-1.969 0.683-2.711 0.741-0.74 1.622-1.166 2.711-0.883 0.285-0.527 0.517-1.086 0.692-1.672-0.973-0.569-1.619-1.395-1.619-2.442zM10 13.652c-2.018 0-3.653-1.635-3.653-3.652 0-2.018 1.636-3.654 3.653-3.654s3.652 1.637 3.652 3.654c0 2.018-1.634 3.652-3.652 3.652z"></path>
</symbol>
<symbol id="icon-credit-card" viewBox="0 0 20 20">
<title>credit-card</title>
<path d="M18 3h-16c-1.101 0-2 0.9-2 2v10c0 1.1 0.899 2 2 2h16c1.1 0 2-0.9 2-2v-10c0-1.1-0.9-2-2-2zM18 15h-16v-6h16v6zM18 6h-16v-1h16v1zM4 11.1v0.6h0.6v-0.6h-0.6zM7.6 12.299v0.601h1.2v-0.601h0.6v-0.6h0.6v-0.6h-1.2v0.6h-0.601v0.6h-0.599zM10 12.9v-0.601h-0.601v0.601h0.601zM7 12.9v-0.601h-1.2v0.601h1.2zM7.6 11.699h0.6v-0.6h-1.2v1.199h0.6v-0.599zM5.199 12.299h0.601v-0.6h0.6v-0.6h-1.2v0.6h-0.6v0.6h-0.6v0.601h1.199v-0.601z"></path>
</symbol>
<symbol id="icon-cw" viewBox="0 0 20 20">
<title>cw</title>
<path d="M19.315 10h-2.372v-0.205c-0.108-4.434-3.724-7.996-8.169-7.996-4.515 0-8.174 3.672-8.174 8.201s3.659 8.199 8.174 8.199c1.898 0 3.645-0.65 5.033-1.738l-1.406-1.504c-1.016 0.748-2.27 1.193-3.627 1.193-3.386 0-6.131-2.754-6.131-6.15s2.745-6.15 6.131-6.15c3.317 0 6.018 2.643 6.125 5.945v0.205h-2.672l3.494 3.894 3.594-3.894z"></path>
</symbol>
<symbol id="icon-cycle" viewBox="0 0 20 20">
<title>cycle</title>
<path d="M5.516 14.224c-2.262-2.432-2.222-6.244 0.128-8.611 0.962-0.969 2.164-1.547 3.414-1.736l-0.069-2.077c-1.755 0.213-3.452 0.996-4.797 2.351-3.149 3.17-3.187 8.289-0.123 11.531l-1.741 1.752 5.51 0.301-0.015-5.834-2.307 2.323zM12.163 2.265l0.015 5.834 2.307-2.322c2.262 2.434 2.222 6.246-0.128 8.611-0.961 0.969-2.164 1.547-3.414 1.736l0.069 2.076c1.755-0.213 3.452-0.996 4.798-2.35 3.148-3.172 3.186-8.291 0.122-11.531l1.741-1.754-5.51-0.3z"></path>
</symbol>
<symbol id="icon-direction" viewBox="0 0 20 20">
<title>direction</title>
<path d="M18.060 1.941c-0.586-0.586-1.144-0.033-3.041 0.879-5.075 2.439-13.919 7.396-13.919 7.396l7.599 1.084 1.085 7.599c0 0 4.958-8.843 7.396-13.916 0.912-1.898 1.465-2.456 0.88-3.042zM16.236 3.896l-5.519 10.247-0.561-4.655 6.080-5.592z"></path>
</symbol>
<symbol id="icon-emoji-happy" viewBox="0 0 20 20">
<title>emoji-happy</title>
<path d="M10 0.4c-5.302 0-9.6 4.298-9.6 9.6s4.298 9.6 9.6 9.6c5.301 0 9.6-4.298 9.6-9.601 0-5.301-4.299-9.599-9.6-9.599zM10 17.599c-4.197 0-7.6-3.402-7.6-7.6s3.402-7.599 7.6-7.599c4.197 0 7.601 3.402 7.601 7.6s-3.404 7.599-7.601 7.599zM7.501 9.75c0.828 0 1.499-0.783 1.499-1.75s-0.672-1.75-1.5-1.75-1.5 0.783-1.5 1.75 0.672 1.75 1.501 1.75zM12.5 9.75c0.829 0 1.5-0.783 1.5-1.75s-0.672-1.75-1.5-1.75-1.5 0.784-1.5 1.75 0.672 1.75 1.5 1.75zM14.341 11.336c-0.363-0.186-0.815-0.043-1.008 0.32-0.034 0.066-0.869 1.593-3.332 1.593-2.451 0-3.291-1.513-3.333-1.592-0.188-0.365-0.632-0.514-1.004-0.329-0.37 0.186-0.52 0.636-0.335 1.007 0.050 0.099 1.248 2.414 4.672 2.414 3.425 0 4.621-2.316 4.67-2.415 0.184-0.367 0.036-0.81-0.33-0.998z"></path>
</symbol>
<symbol id="icon-emoji-neutral" viewBox="0 0 20 20">
<title>emoji-neutral</title>
<path d="M10 0.4c-5.302 0-9.6 4.298-9.6 9.6s4.298 9.6 9.6 9.6c5.301 0 9.6-4.298 9.6-9.601 0-5.301-4.299-9.599-9.6-9.599zM10 17.599c-4.197 0-7.6-3.402-7.6-7.6 0-4.197 3.402-7.6 7.6-7.6 4.197 0 7.6 3.402 7.6 7.6s-3.403 7.6-7.6 7.6zM12.5 6.251c-0.828 0-1.5 0.783-1.5 1.749s0.672 1.75 1.5 1.75c0.829 0 1.5-0.783 1.5-1.75s-0.671-1.749-1.5-1.749zM7.501 9.75c0.828 0 1.499-0.783 1.499-1.75s-0.672-1.75-1.5-1.75c-0.828 0-1.5 0.783-1.5 1.75s0.672 1.75 1.501 1.75zM13 12.25h-6c-0.414 0-0.75 0.336-0.75 0.75s0.336 0.75 0.75 0.75h6c0.414 0 0.75-0.336 0.75-0.75s-0.335-0.75-0.75-0.75z"></path>
</symbol>
<symbol id="icon-emoji-sad" viewBox="0 0 20 20">
<title>emoji-sad</title>
<path d="M10.001 0.4c-5.303 0-9.601 4.298-9.601 9.6 0 5.303 4.298 9.601 9.601 9.601 5.301 0 9.6-4.298 9.6-9.601s-4.3-9.6-9.6-9.6zM10 17.599c-4.197 0-7.6-3.402-7.6-7.6 0-4.197 3.402-7.6 7.6-7.6 4.197 0 7.6 3.402 7.6 7.6s-3.403 7.6-7.6 7.6zM12.501 9.75c0.828 0 1.5-0.783 1.5-1.75s-0.672-1.75-1.5-1.75c-0.828 0-1.5 0.783-1.5 1.75s0.671 1.75 1.5 1.75zM7.501 9.75c0.828 0 1.5-0.783 1.5-1.75s-0.672-1.75-1.5-1.75c-0.828 0-1.5 0.783-1.5 1.75s0.671 1.75 1.5 1.75zM10.002 11.25c-3.424 0-4.622 2.315-4.672 2.414-0.186 0.371-0.035 0.821 0.335 1.007 0.108 0.053 0.222 0.079 0.335 0.079 0.275 0 0.54-0.151 0.672-0.414 0.008-0.017 0.822-1.586 3.33-1.586 2.463 0 3.298 1.527 3.328 1.585 0.184 0.37 0.635 0.523 1.006 0.336 0.371-0.184 0.521-0.636 0.336-1.006-0.049-0.099-1.246-2.415-4.67-2.415z"></path>
</symbol>
<symbol id="icon-eye" viewBox="0 0 20 20">
<title>eye</title>
<path d="M10 4.4c-6.561 0-10 4.832-10 5.6 0 0.766 3.439 5.6 10 5.6s10-4.834 10-5.6c0-0.768-3.44-5.6-10-5.6zM10 14.307c-2.455 0-4.445-1.928-4.445-4.307s1.99-4.309 4.445-4.309c2.455 0 4.444 1.93 4.444 4.309s-1.989 4.307-4.444 4.307zM10 10c-0.407-0.447 0.663-2.154 0-2.154-1.228 0-2.223 0.965-2.223 2.154s0.995 2.154 2.223 2.154c1.227 0 2.223-0.965 2.223-2.154 0-0.547-1.877 0.379-2.223 0z"></path>
</symbol>
<symbol id="icon-heart-outlined" viewBox="0 0 20 20">
<title>heart-outlined</title>
<path d="M17.19 4.156c-1.672-1.535-4.383-1.535-6.055 0l-1.135 1.041-1.136-1.041c-1.672-1.535-4.382-1.535-6.054 0-1.881 1.726-1.881 4.519 0 6.245l7.19 6.599 7.19-6.599c1.88-1.726 1.88-4.52 0-6.245zM16.124 9.375l-6.124 5.715-6.125-5.715c-0.617-0.567-0.856-1.307-0.856-2.094s0.138-1.433 0.756-1.999c0.545-0.501 1.278-0.777 2.063-0.777s1.517 0.476 2.062 0.978l2.1 1.825 2.099-1.826c0.546-0.502 1.278-0.978 2.063-0.978s1.518 0.276 2.063 0.777c0.618 0.566 0.755 1.212 0.755 1.999s-0.238 1.528-0.856 2.095z"></path>
</symbol>
<symbol id="icon-heart" viewBox="0 0 20 20">
<title>heart</title>
<path d="M17.19 4.155c-1.672-1.534-4.383-1.534-6.055 0l-1.135 1.042-1.136-1.042c-1.672-1.534-4.382-1.534-6.054 0-1.881 1.727-1.881 4.52 0 6.246l7.19 6.599 7.19-6.599c1.88-1.726 1.88-4.52 0-6.246z"></path>
</symbol>
<symbol id="icon-help-with-circle" viewBox="0 0 20 20">
<title>help-with-circle</title>
<path d="M10 0.4c-5.302 0-9.6 4.298-9.6 9.6s4.298 9.6 9.6 9.6c5.301 0 9.6-4.298 9.6-9.601 0-5.301-4.299-9.599-9.6-9.599zM9.849 15.599h-0.051c-0.782-0.023-1.334-0.6-1.311-1.371 0.022-0.758 0.587-1.309 1.343-1.309l0.046 0.002c0.804 0.023 1.35 0.594 1.327 1.387-0.023 0.76-0.578 1.291-1.354 1.291zM13.14 9.068c-0.184 0.26-0.588 0.586-1.098 0.983l-0.562 0.387c-0.308 0.24-0.494 0.467-0.563 0.688-0.056 0.174-0.082 0.221-0.087 0.576v0.090h-2.145l0.006-0.182c0.027-0.744 0.045-1.184 0.354-1.547 0.485-0.568 1.555-1.258 1.6-1.287 0.154-0.115 0.283-0.246 0.379-0.387 0.225-0.311 0.324-0.555 0.324-0.793 0-0.334-0.098-0.643-0.293-0.916-0.188-0.266-0.545-0.398-1.061-0.398-0.512 0-0.863 0.162-1.072 0.496-0.216 0.341-0.325 0.7-0.325 1.067v0.092h-2.211l0.004-0.096c0.057-1.353 0.541-2.328 1.435-2.897 0.563-0.361 1.264-0.544 2.081-0.544 1.068 0 1.972 0.26 2.682 0.772 0.721 0.519 1.086 1.297 1.086 2.311-0.001 0.567-0.18 1.1-0.534 1.585z"></path>
</symbol>
<symbol id="icon-home" viewBox="0 0 20 20">
<title>home</title>
<path d="M18.672 11h-1.672v6c0 0.445-0.194 1-1 1h-4v-6h-4v6h-4c-0.806 0-1-0.555-1-1v-6h-1.672c-0.598 0-0.47-0.324-0.060-0.748l8.024-8.032c0.195-0.202 0.451-0.302 0.708-0.312 0.257 0.010 0.513 0.109 0.708 0.312l8.023 8.031c0.411 0.425 0.539 0.749-0.059 0.749z"></path>
</symbol>
<symbol id="icon-image" viewBox="0 0 20 20">
<title>image</title>
<path d="M19 2h-18c-0.553 0-1 0.447-1 1v14c0 0.552 0.447 1 1 1h18c0.553 0 1-0.448 1-1v-14c0-0.552-0.447-1-1-1zM18 16h-16v-12h16v12zM14.315 10.877l-3.231 1.605-3.77-6.101-3.314 7.619h12l-1.685-3.123zM13.25 9c0.69 0 1.25-0.56 1.25-1.25s-0.56-1.25-1.25-1.25-1.25 0.56-1.25 1.25 0.56 1.25 1.25 1.25z"></path>
</symbol>
<symbol id="icon-info-with-circle" viewBox="0 0 20 20">
<title>info-with-circle</title>
<path d="M10 0.4c-5.303 0-9.601 4.298-9.601 9.6 0 5.303 4.298 9.601 9.601 9.601 5.301 0 9.6-4.298 9.6-9.601s-4.299-9.6-9.6-9.6zM10.896 3.866c0.936 0 1.211 0.543 1.211 1.164 0 0.775-0.62 1.492-1.679 1.492-0.886 0-1.308-0.445-1.282-1.182 0-0.621 0.519-1.474 1.75-1.474zM8.498 15.75c-0.64 0-1.107-0.389-0.66-2.094l0.733-3.025c0.127-0.484 0.148-0.678 0-0.678-0.191 0-1.022 0.334-1.512 0.664l-0.319-0.523c1.555-1.299 3.343-2.061 4.108-2.061 0.64 0 0.746 0.756 0.427 1.92l-0.84 3.18c-0.149 0.562-0.085 0.756 0.064 0.756 0.192 0 0.82-0.232 1.438-0.719l0.362 0.486c-1.513 1.512-3.162 2.094-3.801 2.094z"></path>
</symbol>
<symbol id="icon-link" viewBox="0 0 20 20">
<title>link</title>
<path d="M7.859 14.691l-0.81 0.805c-0.701 0.695-1.843 0.695-2.545 0-0.336-0.334-0.521-0.779-0.521-1.252s0.186-0.916 0.521-1.252l2.98-2.955c0.617-0.613 1.779-1.515 2.626-0.675 0.389 0.386 1.016 0.384 1.403-0.005 0.385-0.389 0.383-1.017-0.006-1.402-1.438-1.428-3.566-1.164-5.419 0.675l-2.98 2.956c-0.715 0.709-1.108 1.654-1.108 2.658 0 1.006 0.394 1.949 1.108 2.658 0.736 0.73 1.702 1.096 2.669 1.096s1.934-0.365 2.669-1.096l0.811-0.805c0.389-0.385 0.391-1.012 0.005-1.4s-1.014-0.39-1.403-0.006zM16.891 3.207c-1.547-1.534-3.709-1.617-5.139-0.197l-1.009 1.002c-0.389 0.386-0.392 1.013-0.006 1.401 0.386 0.389 1.013 0.391 1.402 0.005l1.010-1.001c0.74-0.736 1.711-0.431 2.346 0.197 0.336 0.335 0.522 0.779 0.522 1.252s-0.186 0.917-0.522 1.251l-3.18 3.154c-1.454 1.441-2.136 0.766-2.427 0.477-0.389-0.386-1.016-0.383-1.401 0.005s-0.384 1.017 0.005 1.401c0.668 0.662 1.43 0.99 2.228 0.99 0.977 0 2.010-0.492 2.993-1.467l3.18-3.153c0.712-0.71 1.107-1.654 1.107-2.658s-0.395-1.949-1.109-2.659z"></path>
</symbol>
<symbol id="icon-location-pin" viewBox="0 0 20 20">
<title>location-pin</title>
<path d="M10 2.009c-2.762 0-5 2.229-5 4.99 0 4.774 5 11 5 11s5-6.227 5-11c0-2.76-2.238-4.99-5-4.99zM10 9.76c-1.492 0-2.7-1.209-2.7-2.7s1.208-2.7 2.7-2.7c1.49 0 2.699 1.209 2.699 2.7s-1.209 2.7-2.699 2.7z"></path>
</symbol>
<symbol id="icon-location" viewBox="0 0 20 20">
<title>location</title>
<path d="M19.367 18.102l-1.367-4.102h-1.5l0.833 4h-14.666l0.833-4h-1.5l-1.368 4.102c-0.347 1.044 0.268 1.898 1.368 1.898h16c1.1 0 1.715-0.854 1.367-1.898zM15 5c0-2.761-2.238-5-5-5s-5 2.239-5 5c0 4.775 5 10 5 10s5-5.225 5-10zM7.3 5.060c0-1.491 1.208-2.699 2.7-2.699s2.7 1.208 2.7 2.699c0 1.492-1.209 2.7-2.7 2.7s-2.7-1.209-2.7-2.7z"></path>
</symbol>
<symbol id="icon-log-out" viewBox="0 0 20 20">
<title>log-out</title>
<path d="M19 10l-6-5v3h-7v4h7v3l6-5zM3 3h8v-2h-8c-1.1 0-2 0.9-2 2v14c0 1.1 0.9 2 2 2h8v-2h-8v-14z"></path>
</symbol>
<symbol id="icon-magnifying-glass" viewBox="0 0 20 20">
<title>magnifying-glass</title>
<path d="M17.545 15.467l-3.779-3.779c0.57-0.935 0.898-2.035 0.898-3.21 0-3.417-2.961-6.377-6.378-6.377s-6.186 2.769-6.186 6.186c0 3.416 2.961 6.377 6.377 6.377 1.137 0 2.2-0.309 3.115-0.844l3.799 3.801c0.372 0.371 0.975 0.371 1.346 0l0.943-0.943c0.371-0.371 0.236-0.84-0.135-1.211zM4.004 8.287c0-2.366 1.917-4.283 4.282-4.283s4.474 2.107 4.474 4.474c0 2.365-1.918 4.283-4.283 4.283s-4.473-2.109-4.473-4.474z"></path>
</symbol>
<symbol id="icon-mail" viewBox="0 0 20 20">
<title>mail</title>
<path d="M1.574 5.286c0.488 0.262 7.248 3.894 7.5 4.029s0.578 0.199 0.906 0.199c0.328 0 0.654-0.064 0.906-0.199s7.012-3.767 7.5-4.029c0.489-0.263 0.951-1.286 0.054-1.286h-16.919c-0.897 0-0.435 1.023 0.053 1.286zM18.613 7.489c-0.555 0.289-7.387 3.849-7.727 4.027s-0.578 0.199-0.906 0.199-0.566-0.021-0.906-0.199-7.133-3.739-7.688-4.028c-0.39-0.204-0.386 0.035-0.386 0.219s0 7.293 0 7.293c0 0.42 0.566 1 1 1h16c0.434 0 1-0.58 1-1 0 0 0-7.108 0-7.292s0.004-0.423-0.387-0.219z"></path>
</symbol>
<symbol id="icon-shopping-cart" viewBox="0 0 20 20">
<title>shopping-cart</title>
<path d="M13 17c0 1.104 0.894 2 2 2 1.104 0 2-0.896 2-2 0-1.106-0.896-2-2-2-1.106 0-2 0.894-2 2zM3 17c0 1.104 0.895 2 2 2 1.103 0 2-0.896 2-2 0-1.106-0.897-2-2-2-1.105 0-2 0.894-2 2zM6.547 12.172l11.068-3.162c0.211-0.061 0.385-0.289 0.385-0.51v-5.5h-14v-1.6c0-0.22-0.181-0.4-0.399-0.4h-3.202c-0.219 0-0.399 0.18-0.399 0.4v1.6h2l1.91 8.957 0.090 0.943v1.649c0 0.219 0.18 0.4 0.4 0.4h13.2c0.22 0 0.4-0.182 0.4-0.4v-1.549h-11.248c-1.15 0-1.174-0.551-0.205-0.828z"></path>
</symbol>
<symbol id="icon-star-outlined" viewBox="0 0 20 20">
<title>star-outlined</title>
<path d="M18.8 8.022h-6.413l-2.387-6.722-2.389 6.722h-6.412l5.232 3.947-1.871 6.929 5.44-4.154 5.438 4.154-1.869-6.929 5.231-3.947zM10 12.783l-3.014 2.5 1.243-3.562-2.851-2.3 3.522 0.101 1.1-4.040 1.099 4.040 3.521-0.101-2.851 2.3 1.243 3.562-3.012-2.5z"></path>
</symbol>
<symbol id="icon-star" viewBox="0 0 20 20">
<title>star</title>
<path d="M10 1.3l2.388 6.722h6.412l-5.232 3.948 1.871 6.928-5.439-4.154-5.438 4.154 1.87-6.928-5.233-3.948h6.412l2.389-6.722z"></path>
</symbol>
<symbol id="icon-stopwatch" viewBox="0 0 20 20">
<title>stopwatch</title>
<path d="M7.376 6.745c-0.447 0.275 1.197 4.242 1.598 4.888 0.35 0.569 1.093 0.742 1.658 0.394 0.568-0.352 0.745-1.094 0.395-1.66-0.397-0.648-3.205-3.898-3.651-3.622zM7.041 2.402c0.928-0.323 1.922-0.502 2.959-0.502s2.031 0.179 2.959 0.502c0.329 0.114 0.765-0.115 0.572-0.611-0.141-0.36-0.277-0.712-0.332-0.855-0.131-0.339-0.6-0.619-0.804-0.665-0.772-0.174-1.572-0.271-2.395-0.271s-1.623 0.097-2.396 0.271c-0.204 0.046-0.672 0.326-0.803 0.665-0.055 0.143-0.192 0.495-0.332 0.855-0.193 0.496 0.243 0.726 0.572 0.611zM19.098 3.186c-0.192-0.23-0.396-0.455-0.613-0.672-0.216-0.217-0.441-0.42-0.67-0.613-0.153-0.129-0.603-0.234-0.888 0.051s-1.648 1.647-1.648 1.647c0.402 0.288 0.793 0.605 1.155 0.966s0.677 0.752 0.966 1.155c0 0 1.363-1.362 1.647-1.647 0.286-0.286 0.181-0.735 0.051-0.887zM10 2.9c-4.475 0-8.101 3.626-8.101 8.1s3.626 8.101 8.101 8.101c4.473 0 8.1-3.626 8.1-8.101 0-4.473-3.627-8.1-8.1-8.1zM10 17.101c-3.368 0-6.1-2.731-6.1-6.1s2.731-6.1 6.1-6.1c3.369 0 6.101 2.731 6.101 6.1s-2.732 6.1-6.101 6.1z"></path>
</symbol>
<symbol id="icon-thumbs-down" viewBox="0 0 20 20">
<title>thumbs-down</title>
<path d="M6.352 12.638c0.133 0.356-3.539 3.634-1.397 6.291 0.501 0.621 2.201-2.975 4.615-4.602 1.331-0.899 4.43-2.811 4.43-3.868v-6.842c0-1.271-4.914-2.617-8.648-2.617-1.369 0-3.352 8.576-3.352 9.939 0 1.367 4.221 1.343 4.352 1.699zM15 12.543c0.658 0 3-0.4 3-3.123v-4.848c0-2.721-2.342-3.021-3-3.021-0.657 0 1 0.572 1 2.26v6.373c0 1.768-1.657 2.359-1 2.359z"></path>
</symbol>
<symbol id="icon-thumbs-up" viewBox="0 0 20 20">
<title>thumbs-up</title>
<path d="M13.648 7.362c-0.133-0.355 3.539-3.634 1.398-6.291-0.501-0.621-2.201 2.975-4.615 4.603-1.332 0.898-4.431 2.81-4.431 3.867v6.842c0 1.271 4.914 2.617 8.648 2.617 1.369 0 3.352-8.576 3.352-9.938 0-1.368-4.221-1.344-4.352-1.7zM5 7.457c-0.658 0-3 0.4-3 3.123v4.848c0 2.721 2.342 3.021 3 3.021 0.657 0-1-0.572-1-2.26v-6.373c0-1.768 1.657-2.359 1-2.359z"></path>
</symbol>
</defs>
</svg>
